<?xml version="1.0" encoding="iso-8859-1"?>
<!-- Generator: Adobe Illustrator 18.0.0, SVG Export Plug-In . SVG Version: 6.00 Build 0)  -->
<!DOCTYPE svg PUBLIC "-//W3C//DTD SVG 1.1//EN" "http://www.w3.org/Graphics/SVG/1.1/DTD/svg11.dtd">
<svg version="1.1" id="Capa_1" xmlns="http://www.w3.org/2000/svg" xmlns:xlink="http://www.w3.org/1999/xlink" x="0px" y="0px"
	 viewBox="0 0 276.715 276.715" style="enable-background:new 0 0 276.715 276.715;" xml:space="preserve">
<g>
	<path d="M138.357,0C62.066,0,0,62.066,0,138.357s62.066,138.357,138.357,138.357s138.357-62.066,138.357-138.357
		S214.648,0,138.357,0z M138.357,258.715C71.992,258.715,18,204.723,18,138.357S71.992,18,138.357,18
		s120.357,53.992,120.357,120.357S204.723,258.715,138.357,258.715z"/>
	<path d="M152.175,122.885c10.798-5.173,18.274-16.209,18.274-28.96c0-17.695-14.396-32.092-32.092-32.092
		s-32.092,14.396-32.092,32.092c0,12.751,7.476,23.787,18.274,28.96c-14.601,5.582-25.002,19.73-25.002,36.27v46.728
		c0,4.971,4.029,9,9,9h59.641c4.971,0,9-4.029,9-9v-46.728C177.178,142.615,166.777,128.467,152.175,122.885z M138.357,79.833
		c7.771,0,14.092,6.321,14.092,14.092s-6.321,14.092-14.092,14.092s-14.092-6.321-14.092-14.092S130.587,79.833,138.357,79.833z
		 M159.178,196.882h-41.641v-37.728c0-11.48,9.34-20.82,20.82-20.82s20.82,9.34,20.82,20.82V196.882z"/>
</g>
<g>
</g>
<g>
</g>
<g>
</g>
<g>
</g>
<g>
</g>
<g>
</g>
<g>
</g>
<g>
</g>
<g>
</g>
<g>
</g>
<g>
</g>
<g>
</g>
<g>
</g>
<g>
</g>
<g>
</g>
</svg>
