<?xml version="1.0" encoding="UTF-8"?>
<svg width="50pt" version="1.1" xmlns="http://www.w3.org/2000/svg" height="50.3pt" viewBox="0 0 50 50.3" xmlns:xlink="http://www.w3.org/1999/xlink">
 <defs/>
 <g id="Background">
  <path style="fill:#010101; fill-rule:nonzero;stroke:none;" d="M47.3396 31.4537 C46.6443 31.2396 46.0834 30.891 45.7521 30.5054 C45.3737 30.0667 44.6391 29.7053 43.847 29.463 C43.0549 29.2191 42.2668 29.1531 41.6091 29.24 C40.8561 29.339 39.9184 29.1853 39.0118 28.9083 C38.1037 28.6298 37.3276 28.2225 36.7443 27.7524 C36.0738 27.2163 35.1016 26.7921 34.0639 26.4741 C33.5182 26.3075 32.9765 26.1883 32.4468 26.1127 C32.9221 26.0652 33.4221 26.0531 33.9406 26.0748 C35.0248 26.1239 36.0922 26.293 36.9315 26.6504 C37.6628 26.9619 38.5462 27.168 39.4927 27.2066 C40.4401 27.2509 41.3634 27.1656 42.0115 26.8798 C42.5788 26.6311 43.3277 26.4974 44.1543 26.5353 C44.9824 26.5731 45.8057 26.7413 46.3378 27.0762 C46.8019 27.3684 47.4628 27.5664 48.1885 27.6011 C48.915 27.6341 49.5575 27.4908 50 27.2412 C49.4935 27.4521 48.8094 27.5415 48.0869 27.4538 C47.3684 27.366 46.7539 27.1205 46.3618 26.7993 C45.9129 26.433 45.1288 26.2052 44.3055 26.1062 C43.4838 26.004 42.6972 26.078 42.0643 26.2777 C41.3394 26.5055 40.3873 26.5184 39.4471 26.4033 C38.5046 26.2898 37.6684 26.0225 37.0139 25.6627 C36.2626 25.2489 35.232 25.001 34.1543 24.8722 C33.5886 24.803 33.0357 24.7804 32.5028 24.7981 C32.9621 24.6685 33.4534 24.5671 33.967 24.4995 C35.044 24.357 36.1218 24.3393 37.0131 24.5446 C37.7868 24.7241 38.6918 24.7692 39.6303 24.6468 C40.5697 24.5236 41.465 24.2781 42.0539 23.8829 C42.5708 23.5383 43.2821 23.2767 44.1055 23.1697 C44.9256 23.0618 45.7681 23.0851 46.3482 23.321 C46.8563 23.5279 47.5404 23.6092 48.2613 23.5142 C48.9814 23.4208 49.5911 23.1681 49.98 22.8453 C49.5191 23.1407 48.8614 23.3468 48.1357 23.387 C47.4092 23.4273 46.7651 23.292 46.321 23.0441 C45.8161 22.7615 45.004 22.6746 44.1751 22.7197 C43.3485 22.7656 42.586 22.9732 41.9979 23.2799 C41.3226 23.6325 40.3881 23.8096 39.4431 23.8619 C38.4958 23.9127 37.6268 23.7975 36.9195 23.5569 C36.1066 23.2832 35.0504 23.2188 33.9678 23.2767 C33.3989 23.3073 32.8493 23.3822 32.3252 23.4941 C32.7548 23.2864 33.2205 23.0996 33.7158 22.9427 C34.752 22.6166 35.8129 22.4082 36.7227 22.4565 C37.5148 22.4975 38.4149 22.384 39.3199 22.0998 C40.2232 21.8157 41.0642 21.4164 41.5747 20.9238 C42.0235 20.4947 42.6812 20.1132 43.4718 19.8628 C44.2607 19.6141 45.0936 19.4893 45.7065 19.6189 C46.2426 19.734 46.9299 19.6962 47.6228 19.4764 C48.3165 19.2575 48.8742 18.9033 49.2031 18.5169 C48.7982 18.8888 48.1861 19.2068 47.4796 19.3726 C46.7731 19.5384 46.1138 19.5191 45.6353 19.3517 C45.088 19.1641 44.2727 19.2188 43.4662 19.4064 C42.658 19.5964 41.9459 19.9345 41.417 20.341 C40.8137 20.8046 39.9232 21.1427 39.0006 21.3593 C38.0773 21.5758 37.2004 21.6112 36.4626 21.5001 C35.6153 21.3721 34.5639 21.4929 33.5062 21.7408 C32.9533 21.8696 32.4228 22.0411 31.9275 22.2399 C32.3148 21.9614 32.742 21.6966 33.2029 21.4559 C34.1655 20.9519 35.1752 20.5631 36.0802 20.4496 C36.8659 20.3514 37.7332 20.0834 38.5742 19.6439 C39.4167 19.2043 40.1728 18.6666 40.5929 18.0927 C40.9602 17.592 41.5418 17.1009 42.2772 16.7178 C43.0117 16.333 43.8102 16.0649 44.4351 16.0867 C44.984 16.106 45.6537 15.9474 46.2978 15.6117 C46.9435 15.2752 47.4308 14.8277 47.6852 14.3898 C47.3524 14.8261 46.8035 15.2471 46.1362 15.5336 C45.4673 15.821 44.816 15.9152 44.3159 15.8355 C43.7454 15.7454 42.9517 15.941 42.1908 16.2686 C41.4298 16.5946 40.7825 17.0526 40.3361 17.5445 C39.82 18.1072 39.003 18.5966 38.1325 18.9709 C37.2604 19.3444 36.4042 19.5344 35.6569 19.5529 C34.8008 19.5746 33.7846 19.8757 32.786 20.3056 C32.2644 20.5301 31.7699 20.791 31.317 21.0743 C31.6499 20.729 32.0267 20.3957 32.4356 20.0794 C33.2981 19.4144 34.2247 18.855 35.0968 18.5861 C35.8545 18.3519 36.6627 17.9365 37.414 17.3569 C38.1653 16.7781 38.8206 16.1165 39.1343 15.4765 C39.4095 14.9211 39.8968 14.3342 40.5529 13.8271 C41.2106 13.32 41.9515 12.9175 42.57 12.8305 C43.1141 12.7516 43.747 12.4796 44.3231 12.036 C44.9 11.5925 45.3032 11.0668 45.4793 10.5903 C45.2264 11.0797 44.7592 11.5885 44.1511 11.9877 C43.543 12.3862 42.9165 12.5947 42.41 12.6035 C41.8315 12.6132 41.085 12.9456 40.3913 13.4013 C39.6976 13.8561 39.1407 14.4204 38.7846 14.9822 C38.3733 15.627 37.6532 16.2501 36.8595 16.7725 C36.0674 17.2917 35.2544 17.6282 34.5247 17.7771 C33.6838 17.947 32.7372 18.4235 31.8275 19.02 C31.3506 19.3331 30.9105 19.6744 30.5129 20.0343 C30.7817 19.6382 31.093 19.243 31.4442 18.8566 C32.1787 18.0524 32.9949 17.3392 33.8054 16.923 C34.5119 16.56 35.2352 16.0102 35.8761 15.3074 C36.517 14.6039 37.0467 13.8384 37.2468 13.1541 C37.422 12.5585 37.8012 11.8951 38.3613 11.281 C38.9222 10.6684 39.5799 10.1419 40.1776 9.9463 C40.6977 9.77564 41.2746 9.39569 41.7651 8.85877 C42.2572 8.32105 42.5636 7.73342 42.654 7.23353 C42.49 7.75837 42.1163 8.34198 41.5867 8.84107 C41.057 9.34015 40.4753 9.6549 39.98 9.75069 C39.4127 9.86178 38.7326 10.319 38.1293 10.8905 C37.5244 11.458 37.0747 12.1125 36.8179 12.7259 C36.5258 13.4335 35.9241 14.1732 35.232 14.8253 C34.5415 15.4765 33.8006 15.949 33.1053 16.2227 C32.3084 16.5391 31.4562 17.171 30.6641 17.918 C30.248 18.3084 29.8752 18.7222 29.5455 19.1456 C29.7424 18.7077 29.98 18.2633 30.2616 17.8238 C30.8449 16.9029 31.5258 16.0585 32.2524 15.5055 C32.8853 15.0241 33.503 14.3568 34.0118 13.5526 C34.5231 12.7484 34.9104 11.9016 34.992 11.1924 C35.0592 10.575 35.3185 9.85775 35.7657 9.1542 C36.213 8.45146 36.7691 7.81794 37.322 7.52251 C37.8052 7.26411 38.3061 6.78918 38.699 6.17337 C39.0895 5.55756 39.2911 4.92485 39.2943 4.41611 C39.2239 4.96349 38.9566 5.60345 38.5206 6.18625 C38.0845 6.77147 37.5676 7.1812 37.0955 7.36393 C36.5562 7.57242 35.9658 8.14235 35.4689 8.80806 C34.972 9.47458 34.6407 10.1958 34.4967 10.8479 C34.3311 11.5941 33.8654 12.428 33.2965 13.1904 C32.7276 13.9527 32.0795 14.5492 31.4434 14.9396 C30.7121 15.3904 29.984 16.1615 29.3319 17.0357 C28.9894 17.493 28.6926 17.9647 28.4414 18.4396 C28.5598 17.9727 28.7182 17.4946 28.9166 17.014 C29.3335 16.0046 29.8592 15.0531 30.4777 14.3825 C31.0186 13.7973 31.5106 13.0318 31.8747 12.1519 C32.2388 11.2713 32.4748 10.3689 32.4308 9.65651 C32.3916 9.03587 32.5228 8.28322 32.8421 7.51446 C33.1589 6.7441 33.5998 6.02284 34.0927 5.63565 C34.5255 5.29514 34.9384 4.73971 35.2144 4.06594 C35.4929 3.39217 35.5817 2.7337 35.4985 2.2314 C35.5233 2.78361 35.3721 3.45979 35.0424 4.11102 C34.7144 4.76386 34.2767 5.25811 33.8422 5.51973 C33.3453 5.81838 32.8637 6.48248 32.4908 7.22548 C32.1155 7.97008 31.9139 8.73722 31.8843 9.40455 C31.8499 10.1685 31.5354 11.07 31.1058 11.9217 C30.6777 12.7726 30.1416 13.4705 29.5839 13.968 C28.9398 14.5379 28.3573 15.4258 27.8653 16.4006 C27.6092 16.911 27.398 17.4278 27.2324 17.9381 C27.2684 17.4583 27.3404 16.9609 27.4524 16.4513 C27.69 15.3839 28.0413 14.356 28.5366 13.5872 C28.9678 12.9167 29.3207 12.0771 29.5271 11.1465 C29.7336 10.2152 29.8104 9.28541 29.6431 8.59152 C29.4975 7.98859 29.4975 7.22467 29.6791 6.41164 C29.8592 5.5962 30.168 4.80974 30.5873 4.34285 C30.953 3.93231 31.2642 3.31248 31.4218 2.59847 C31.5795 1.88606 31.5546 1.22357 31.3842 0.743799 C31.5026 1.28313 31.4698 1.97622 31.261 2.67413 C31.0482 3.37285 30.7017 3.93634 30.3201 4.2696 C29.8824 4.65116 29.5247 5.38932 29.2823 6.18706 C29.0414 6.98479 28.9758 7.77689 29.0622 8.43858 C29.1607 9.19606 29.0062 10.1395 28.731 11.0523 C28.4558 11.9652 28.0477 12.7468 27.5836 13.3336 C27.0491 14.0082 26.6275 14.9847 26.3114 16.0311 C26.1458 16.5777 26.0282 17.1243 25.9538 17.6564 C25.9049 17.1782 25.8913 16.6743 25.9145 16.1543 C25.9634 15.0627 26.1314 13.9889 26.4882 13.1437 C26.7979 12.4087 26.9995 11.52 27.0411 10.5677 C27.0835 9.61545 26.9987 8.6857 26.7163 8.03287 C26.4674 7.46294 26.3346 6.71029 26.3738 5.87794 C26.4098 5.04479 26.5787 4.21486 26.9099 3.68116 C27.2004 3.21266 27.3988 2.55017 27.4316 1.81925 C27.4644 1.09074 27.3236 0.441128 27.0739 0 C27.2852 0.508746 27.3724 1.1962 27.2852 1.92229 C27.1996 2.64757 26.9539 3.26338 26.6347 3.65862 C26.2706 4.10941 26.0442 4.9007 25.9442 5.72741 C25.8457 6.55413 25.9161 7.34622 26.1146 7.98135 C26.3426 8.71307 26.3554 9.66939 26.241 10.6152 C26.1266 11.5619 25.8609 12.4039 25.5049 13.0624 C25.0952 13.8182 24.848 14.8559 24.7184 15.9394 C24.6503 16.5077 24.6279 17.0663 24.6463 17.6016 C24.5175 17.1396 24.4151 16.6461 24.3479 16.1293 C24.2079 15.0458 24.1895 13.9591 24.3935 13.0648 C24.5711 12.2864 24.6167 11.3751 24.4943 10.4309 C24.3727 9.48585 24.1279 8.58428 23.7358 7.99181 C23.3933 7.4718 23.1341 6.75617 23.0269 5.92866 C22.9197 5.10114 22.9421 4.25511 23.1765 3.6715 C23.3821 3.15954 23.4638 2.47048 23.3701 1.74761 C23.2765 1.02313 23.0261 0.408928 22.7036 0.0177095 C22.9989 0.481376 23.2037 1.14387 23.2429 1.87399 C23.2821 2.60249 23.1485 3.25372 22.9021 3.69807 C22.6212 4.20601 22.5348 5.02386 22.5796 5.8554 C22.6244 6.68856 22.8317 7.45409 23.1365 8.04736 C23.487 8.72595 23.663 9.66617 23.715 10.6185 C23.7662 11.5707 23.6502 12.4458 23.4125 13.1557 C23.1389 13.9736 23.0749 15.0378 23.1333 16.1277 C23.1645 16.6984 23.2389 17.2523 23.3493 17.7795 C23.1421 17.3448 22.9573 16.878 22.8012 16.3789 C22.4764 15.3372 22.27 14.269 22.3172 13.3546 C22.358 12.5568 22.246 11.652 21.9619 10.7416 C21.6787 9.83199 21.2826 8.98677 20.7945 8.47319 C20.3681 8.0224 19.988 7.36071 19.74 6.56459 C19.4919 5.77008 19.3687 4.9329 19.4983 4.31709 C19.6127 3.77776 19.5735 3.08467 19.3559 2.38756 C19.1383 1.69287 18.7862 1.13019 18.4013 0.799342 C18.7718 1.20666 19.0879 1.82327 19.2527 2.53407 C19.4175 3.24486 19.3975 3.90816 19.2319 4.39035 C19.043 4.93934 19.0983 5.75961 19.2863 6.57264 C19.4743 7.38486 19.8104 8.1021 20.2136 8.63258 C20.6753 9.24033 21.0114 10.1347 21.2266 11.0636 C21.4418 11.9926 21.4778 12.8748 21.3666 13.6162 C21.2386 14.4695 21.3586 15.5272 21.6051 16.5914 C21.7339 17.1484 21.9027 17.6813 22.1027 18.1796 C21.8235 17.7892 21.561 17.3601 21.3218 16.8965 C20.8217 15.9265 20.4353 14.913 20.3225 14.0018 C20.2248 13.2105 19.9584 12.3387 19.5223 11.4919 C19.0863 10.6466 18.551 9.88432 17.9797 9.46009 C17.482 9.09141 16.9939 8.507 16.6123 7.76642 C16.2306 7.02665 15.9642 6.22408 15.9858 5.59459 C16.005 5.04318 15.8473 4.36861 15.5129 3.7206 C15.1792 3.07099 14.7352 2.58156 14.2983 2.32397 C14.7336 2.65964 15.1512 3.21105 15.4361 3.88321 C15.7209 4.55456 15.8161 5.21062 15.7361 5.71292 C15.6449 6.28768 15.8417 7.08541 16.1666 7.85255 C16.4914 8.6197 16.9467 9.2677 17.4348 9.7201 C17.9941 10.2369 18.4798 11.0588 18.8518 11.9362 C19.2231 12.8136 19.4119 13.6758 19.4303 14.426 C19.4511 15.2881 19.752 16.308 20.1784 17.3126 C20.4017 17.8391 20.6601 18.3358 20.9426 18.7922 C20.6001 18.4557 20.2672 18.0782 19.952 17.6652 C19.2927 16.7975 18.7358 15.8653 18.4686 14.9887 C18.2357 14.2264 17.8229 13.4133 17.2476 12.6575 C16.6715 11.9008 16.013 11.2423 15.3777 10.9252 C14.8248 10.6498 14.2423 10.158 13.739 9.49712 C13.2357 8.83543 12.8341 8.09163 12.7468 7.46777 C12.6708 6.92039 12.3988 6.28365 11.9579 5.70407 C11.517 5.12288 10.9954 4.71878 10.5209 4.54007 C11.0074 4.79525 11.5138 5.26616 11.9107 5.87714 C12.3076 6.48973 12.5132 7.11922 12.5212 7.62877 C12.5316 8.20996 12.8621 8.96101 13.3149 9.65892 C13.7678 10.3576 14.3279 10.9171 14.8864 11.2761 C15.5265 11.6883 16.1466 12.4127 16.6643 13.2121 C17.1819 14.0114 17.5164 14.8261 17.6644 15.5626 C17.8333 16.4079 18.3061 17.3618 18.8998 18.2762 C19.2103 18.7552 19.5503 19.1979 19.9072 19.598 C19.5127 19.3267 19.1191 19.0144 18.7374 18.661 C17.9373 17.9212 17.2292 17.1009 16.8147 16.2839 C16.4538 15.5739 15.9065 14.8462 15.2096 14.2014 C14.5111 13.5566 13.7494 13.0237 13.0701 12.8233 C12.4764 12.647 11.8187 12.2662 11.2082 11.702 C10.5977 11.1369 10.0744 10.4744 9.88158 9.87627 C9.71275 9.35142 9.33429 8.77023 8.79981 8.27597 C8.26532 7.78333 7.68123 7.47502 7.18355 7.38245 C7.70603 7.54747 8.28693 7.92259 8.78301 8.45548 C9.27988 8.98838 9.59113 9.57359 9.68715 10.0727 C9.79677 10.6442 10.2528 11.3276 10.8193 11.9346 C11.3858 12.5424 12.0339 12.9972 12.646 13.2531 C13.3477 13.547 14.0831 14.1539 14.7312 14.8486 C15.3785 15.5449 15.8489 16.2895 16.121 16.9874 C16.4346 17.7916 17.0643 18.6481 17.806 19.4442 C18.1957 19.8628 18.6062 20.2387 19.027 20.5696 C18.5918 20.3724 18.1509 20.1333 17.7132 19.8523 C16.7979 19.2647 15.9586 18.5797 15.4097 17.848 C14.9312 17.2112 14.2671 16.5906 13.4694 16.0762 C12.67 15.5634 11.8283 15.1714 11.1242 15.0933 C10.5097 15.0241 9.79517 14.7625 9.09746 14.3133 C8.39974 13.8641 7.76924 13.3047 7.4764 12.7484 C7.21876 12.2622 6.74668 11.7551 6.13458 11.3623 C5.52328 10.9694 4.89518 10.7674 4.3895 10.7642 C4.93279 10.8358 5.56889 11.1022 6.14978 11.5418 C6.73068 11.9797 7.13794 12.5005 7.31877 12.977 C7.5252 13.5188 8.09249 14.1113 8.755 14.6119 C9.41751 15.1126 10.1344 15.4451 10.7817 15.5908 C11.5234 15.7574 12.3524 16.2243 13.1109 16.7991 C13.8694 17.3698 14.4607 18.0226 14.8496 18.6626 C15.2968 19.3991 16.065 20.1309 16.9331 20.7861 C17.3876 21.1315 17.8573 21.4301 18.3293 21.6821 C17.8661 21.5645 17.3908 21.4043 16.9123 21.2039 C15.9097 20.7845 14.9648 20.2573 14.2967 19.6334 C13.7166 19.0892 12.9557 18.595 12.0803 18.2287 C11.2058 17.8633 10.308 17.6242 9.60074 17.6684 C8.98384 17.7087 8.23572 17.5751 7.4708 17.2547 C6.70507 16.9359 5.98816 16.4924 5.6025 15.9965 C5.26564 15.5618 4.71275 15.1481 4.04305 14.8663 C3.37334 14.5862 2.71964 14.4976 2.22036 14.5814 C2.76844 14.5588 3.44055 14.7102 4.08785 15.041 C4.73516 15.371 5.22724 15.8122 5.48728 16.2493 C5.78413 16.7484 6.44503 17.2321 7.18355 17.6081 C7.92287 17.9864 8.68619 18.1893 9.3487 18.2199 C10.1088 18.2545 11.0058 18.5708 11.8507 19.0007 C12.6956 19.4322 13.3909 19.9715 13.8846 20.5334 C14.4519 21.1798 15.3353 21.7674 16.3026 22.2616 C16.8107 22.5208 17.3244 22.7334 17.8317 22.8992 C17.3556 22.8638 16.8603 22.7897 16.3538 22.677 C15.2936 22.4395 14.2719 22.0846 13.507 21.5871 C12.8413 21.1524 12.0067 20.7974 11.081 20.5905 C10.156 20.382 9.23108 20.3047 8.54297 20.473 C7.94207 20.6203 7.18275 20.6203 6.37382 20.4376 C5.56569 20.2564 4.78237 19.9465 4.31669 19.5247 C3.90943 19.156 3.29413 18.8429 2.58521 18.6843 C1.8771 18.5266 1.21859 18.5523 0.740919 18.723 C1.2762 18.6038 1.96511 18.636 2.65963 18.8477 C3.35414 19.0594 3.91503 19.408 4.24628 19.7944 C4.62474 20.2323 5.35926 20.5953 6.15138 20.8376 C6.94351 21.0799 7.73084 21.1451 8.38854 21.059 C9.14226 20.9616 10.0808 21.1154 10.9874 21.3915 C11.8939 21.6684 12.6716 22.0781 13.2549 22.5466 C13.9254 23.0835 14.896 23.5094 15.9345 23.8265 C16.4794 23.9923 17.0227 24.1115 17.5516 24.1863 C17.0755 24.2338 16.5755 24.2491 16.057 24.2266 C14.972 24.1759 13.9054 24.006 13.0653 23.6486 C12.3356 23.3379 11.4522 23.1342 10.5049 23.0916 C9.55833 23.0489 8.63418 23.1334 7.98528 23.4192 C7.41879 23.6696 6.67067 23.8024 5.84333 23.7637 C5.0152 23.7259 4.19107 23.5569 3.65979 23.2236 C3.19571 22.9314 2.53561 22.7318 1.80909 22.6987 C1.08417 22.6666 0.44007 22.8074 0 23.0578 C0.505681 22.8461 1.18979 22.7591 1.91071 22.8461 C2.63082 22.9338 3.24372 23.1785 3.63658 23.5005 C4.08545 23.8668 4.87038 24.0946 5.69291 24.196 C6.51544 24.295 7.30117 24.2234 7.93487 24.0229 C8.65979 23.7943 9.61034 23.7822 10.5521 23.8974 C11.493 24.0125 12.3292 24.2789 12.9837 24.6371 C13.7366 25.0517 14.7664 25.298 15.8441 25.43 C16.409 25.4977 16.9643 25.5194 17.498 25.5009 C17.0379 25.6313 16.5474 25.7335 16.033 25.8011 C14.9568 25.9428 13.8758 25.9613 12.9877 25.7552 C12.2148 25.5773 11.309 25.5307 10.3697 25.6546 C9.42951 25.7754 8.53417 26.0225 7.94447 26.4153 C7.42919 26.7615 6.71547 27.0223 5.89454 27.131 C5.07281 27.2396 4.23108 27.2155 3.65178 26.9796 C3.1437 26.7703 2.45879 26.6906 1.73868 26.7848 C1.01856 26.879 0.408865 27.1326 0.0192031 27.4562 C0.480877 27.1591 1.13938 26.9531 1.8643 26.9136 C2.58921 26.8742 3.23492 27.0062 3.67659 27.2549 C4.18147 27.5399 4.9944 27.626 5.82173 27.5801 C6.64906 27.5342 7.41079 27.3258 7.99968 27.0191 C8.67499 26.6665 9.60874 26.4894 10.5553 26.4371 C11.501 26.3864 12.3716 26.5031 13.0781 26.7422 C13.891 27.0175 14.9472 27.0819 16.0314 27.0223 C16.5995 26.9925 17.1499 26.9168 17.6724 26.8049 C17.242 27.0126 16.7763 27.1994 16.2818 27.3555 C15.2456 27.684 14.1847 27.89 13.2741 27.8426 C12.482 27.8031 11.5827 27.915 10.6785 28.1992 C9.77436 28.4849 8.93503 28.8834 8.42215 29.3752 C7.97488 29.8027 7.31717 30.1866 6.52664 30.4362 C5.73612 30.6865 4.90398 30.8089 4.29189 30.6785 C3.7558 30.5634 3.06769 30.6044 2.37478 30.8234 C1.68187 31.0407 1.12418 31.3973 0.796928 31.7837 C1.20019 31.4094 1.81309 31.0922 2.5204 30.928 C3.22772 30.7614 3.88702 30.7799 4.3647 30.9465 C4.91119 31.1365 5.72652 31.0802 6.53305 30.8918 C7.34037 30.7034 8.05409 30.3654 8.58137 29.9596 C9.18547 29.496 10.0744 29.1563 10.9978 28.9389 C11.9211 28.7232 12.7972 28.687 13.5342 28.7973 C14.3823 28.9261 15.4345 28.8085 16.4914 28.5566 C17.0459 28.4294 17.5748 28.2595 18.0701 28.0583 C17.6828 28.34 17.2556 28.6041 16.7955 28.8431 C15.8313 29.3479 14.8224 29.7343 13.9174 29.8494 C13.1309 29.9468 12.2644 30.2156 11.4234 30.6543 C10.5825 31.0947 9.82317 31.6324 9.4039 32.2063 C9.03745 32.7078 8.45495 33.1981 7.72044 33.5837 C6.98512 33.9676 6.18659 34.2365 5.56089 34.2123 C5.0128 34.1922 4.34229 34.3524 3.69739 34.6889 C3.05329 35.0254 2.56521 35.4721 2.30997 35.9108 C2.64362 35.4737 3.19171 35.0527 3.85902 34.7662 C4.52712 34.4804 5.17923 34.3838 5.67931 34.4643 C6.2498 34.5553 7.04353 34.3588 7.80525 34.0304 C8.56777 33.7052 9.21267 33.2456 9.66075 32.7553 C10.176 32.1927 10.993 31.7032 11.8643 31.3297 C12.7364 30.957 13.5934 30.767 14.3383 30.7461 C15.196 30.7276 16.2098 30.4241 17.2092 29.9943 C17.7324 29.7681 18.2253 29.5097 18.6774 29.2255 C18.3437 29.57 17.9693 29.9033 17.5572 30.2221 C16.6955 30.8838 15.7689 31.4456 14.8968 31.7145 C14.1391 31.9487 13.3317 32.3625 12.5796 32.9421 C11.8267 33.5225 11.173 34.1842 10.8585 34.8225 C10.5841 35.3804 10.0952 35.9656 9.43831 36.4719 C8.7806 36.9782 8.04049 37.3839 7.42119 37.4701 C6.8779 37.5474 6.2442 37.8194 5.66891 38.2638 C5.09201 38.7073 4.68875 39.2322 4.51272 39.7103 C4.76556 39.2201 5.23284 38.7106 5.84093 38.3129 C6.44903 37.9136 7.07473 37.7059 7.58121 37.6963 C8.15891 37.6866 8.90622 37.3534 9.59994 36.8994 C10.2944 36.4453 10.8505 35.8803 11.2074 35.3192 C11.6171 34.6744 12.3388 34.0489 13.1317 33.5281 C13.9262 33.0081 14.7368 32.6716 15.4673 32.5219 C16.3082 32.352 17.2548 31.8771 18.1645 31.2798 C18.6414 30.9651 19.0815 30.6246 19.4775 30.2655 C19.2087 30.6616 18.8982 31.0576 18.547 31.4416 C17.8124 32.2466 16.9963 32.959 16.1842 33.3768 C15.4785 33.7398 14.7552 34.2904 14.1143 34.9932 C13.4734 35.6943 12.9437 36.4614 12.7436 37.1441 C12.5692 37.7414 12.19 38.4031 11.6291 39.0164 C11.0682 39.6314 10.4097 40.1579 9.81437 40.3527 C9.29349 40.5226 8.71659 40.9017 8.22612 41.4394 C7.73484 41.9788 7.42759 42.5648 7.33637 43.0663 C7.5012 42.5414 7.87326 41.9562 8.40294 41.4579 C8.93343 40.9597 9.51352 40.6449 10.0104 40.5475 C10.5769 40.4372 11.2562 39.98 11.8611 39.4093 C12.466 38.8402 12.9165 38.1857 13.1709 37.5715 C13.463 36.8655 14.0655 36.125 14.7576 35.4745 C15.4489 34.8217 16.1898 34.3508 16.8843 34.0771 C17.6828 33.7607 18.5342 33.1272 19.3263 32.3826 C19.7416 31.9914 20.116 31.5776 20.4449 31.155 C20.248 31.5937 20.0104 32.0357 19.7312 32.4776 C19.1471 33.3993 18.4662 34.2429 17.7388 34.7968 C17.1059 35.2781 16.4882 35.9447 15.9786 36.7464 C15.4681 37.5514 15.0792 38.4006 15.0008 39.1082 C14.932 39.7264 14.6727 40.4445 14.2263 41.1456 C13.7806 41.85 13.2229 42.4819 12.6692 42.7773 C12.1851 43.0365 11.6835 43.5114 11.2922 44.1264 C10.9009 44.7431 10.7009 45.375 10.6969 45.8845 C10.7681 45.3371 11.0346 44.6956 11.4698 44.1144 C11.9059 43.5308 12.4236 43.1194 12.8965 42.9383 C13.4357 42.729 14.0254 42.1599 14.5223 41.4917 C15.02 40.8268 15.3505 40.1032 15.4953 39.4544 C15.6609 38.7073 16.1266 37.8742 16.6955 37.1103 C17.2636 36.3479 17.9117 35.7531 18.5486 35.3618 C19.2807 34.9119 20.0088 34.1383 20.6609 33.2657 C21.0026 32.8085 21.2994 32.3351 21.5506 31.8618 C21.4322 32.3271 21.2746 32.8052 21.0754 33.2866 C20.6585 34.2961 20.1344 35.2475 19.5135 35.9189 C18.9734 36.5025 18.4798 37.268 18.1165 38.1487 C17.7524 39.0293 17.5156 39.9333 17.5604 40.6441 C17.5996 41.2647 17.4676 42.0182 17.1491 42.787 C16.8315 43.5557 16.3914 44.2802 15.8985 44.6674 C15.4665 45.0071 15.0536 45.5617 14.7744 46.2347 C14.4959 46.9092 14.4079 47.5677 14.4919 48.0692 C14.4671 47.517 14.6191 46.8416 14.948 46.1904 C15.276 45.5376 15.7145 45.0425 16.149 44.7833 C16.6443 44.4847 17.1259 43.8181 17.5004 43.0759 C17.8757 42.3321 18.0773 41.5634 18.1069 40.8985 C18.1413 40.1346 18.4558 39.2306 18.8838 38.3797 C19.3127 37.5305 19.848 36.8309 20.4073 36.3343 C21.0506 35.7635 21.6347 34.8748 22.1251 33.9024 C22.3828 33.3913 22.5932 32.8745 22.7588 32.3649 C22.7228 32.8431 22.65 33.3414 22.5372 33.8509 C22.3012 34.9183 21.9491 35.9455 21.453 36.7158 C21.0226 37.3856 20.6697 38.2235 20.4633 39.1557 C20.2568 40.0863 20.1792 41.0176 20.3465 41.7091 C20.4921 42.3144 20.4929 43.0784 20.312 43.8914 C20.1312 44.706 19.8232 45.4917 19.4039 45.9602 C19.0374 46.3707 18.7262 46.9897 18.5686 47.7038 C18.4109 48.4146 18.4365 49.0779 18.607 49.5576 C18.4886 49.0183 18.5206 48.3268 18.731 47.6289 C18.9422 46.9294 19.2895 46.3667 19.6711 46.0318 C20.1072 45.6527 20.4673 44.9121 20.7081 44.1152 C20.949 43.3182 21.0146 42.5269 20.9289 41.8636 C20.8305 41.1062 20.985 40.1627 21.2602 39.2507 C21.5354 38.337 21.9419 37.5562 22.4076 36.9678 C22.9421 36.2948 23.3637 35.3168 23.679 34.2727 C23.8454 33.7237 23.963 33.1787 24.0382 32.6459 C24.0855 33.124 24.0999 33.6287 24.0767 34.1504 C24.0278 35.2403 23.859 36.3141 23.5038 37.1594 C23.1949 37.8935 22.9917 38.7822 22.9501 39.7329 C22.9077 40.6892 22.9917 41.6165 23.2757 42.2686 C23.523 42.8393 23.6558 43.5927 23.6182 44.4243 C23.5814 45.2574 23.4133 46.0858 23.0813 46.6211 C22.7908 47.088 22.5916 47.7529 22.5596 48.483 C22.5268 49.2107 22.6668 49.8603 22.9165 50.3038 C22.7068 49.7943 22.6188 49.1076 22.706 48.3807 C22.7932 47.6563 23.0373 47.0397 23.3565 46.6452 C23.7206 46.1936 23.9478 45.4031 24.047 44.5764 C24.1471 43.7497 24.0743 42.9584 23.8766 42.3217 C23.6494 41.5908 23.6382 40.6344 23.751 39.6886 C23.8646 38.7419 24.1303 37.9007 24.4863 37.2423 C24.8968 36.4864 25.1432 35.4496 25.2736 34.3653 C25.3409 33.7962 25.3641 33.2399 25.3457 32.7022 C25.4753 33.1626 25.5769 33.6585 25.6441 34.1753 C25.7849 35.2572 25.8017 36.3431 25.5985 37.2399 C25.4217 38.0183 25.3753 38.9287 25.4985 39.8729 C25.6201 40.8196 25.8641 41.7204 26.2562 42.3112 C26.6003 42.8312 26.8595 43.5485 26.9659 44.3752 C27.0739 45.2003 27.0499 46.0479 26.8155 46.6315 C26.6091 47.1443 26.5298 47.8326 26.6235 48.5578 C26.7171 49.2807 26.9675 49.8941 27.2892 50.2869 C26.9955 49.8217 26.7891 49.1584 26.7499 48.4298 C26.7091 47.7005 26.8435 47.0509 27.0907 46.6042 C27.3724 46.0978 27.458 45.2792 27.4124 44.4468 C27.3668 43.6145 27.1611 42.8481 26.8563 42.2549 C26.505 41.5755 26.3298 40.6353 26.2778 39.6846 C26.2258 38.7339 26.3418 37.8565 26.5795 37.1473 C26.8531 36.3294 26.9187 35.2669 26.8595 34.1777 C26.8283 33.6038 26.7547 33.0524 26.6427 32.5235 C26.8523 32.9574 27.0347 33.4259 27.1916 33.9225 C27.5164 34.9666 27.7228 36.034 27.6756 36.9493 C27.6348 37.7478 27.746 38.6502 28.0301 39.5606 C28.3133 40.4694 28.7086 41.3155 29.1975 41.8306 C29.6239 42.2822 30.004 42.9423 30.252 43.7376 C30.5001 44.533 30.6241 45.3709 30.4945 45.9875 C30.3801 46.5269 30.4193 47.2184 30.6369 47.9155 C30.8545 48.6126 31.2074 49.1736 31.5915 49.5037 C31.221 49.0964 30.9041 48.4806 30.7401 47.7698 C30.5761 47.059 30.5945 46.3957 30.7601 45.9143 C30.949 45.3637 30.8945 44.545 30.7057 43.732 C30.5201 42.9206 30.184 42.2009 29.7792 41.6705 C29.3183 41.0635 28.9822 40.1692 28.7662 39.2394 C28.5502 38.3121 28.515 37.4298 28.6254 36.6876 C28.7534 35.8336 28.6334 34.7774 28.3861 33.7133 C28.2581 33.157 28.0893 32.6233 27.8893 32.1234 C28.1677 32.513 28.4317 32.9429 28.671 33.4066 C29.1711 34.3766 29.5567 35.3924 29.6695 36.3013 C29.768 37.0934 30.0336 37.9643 30.4713 38.8104 C30.9073 39.658 31.4418 40.4203 32.0123 40.8413 C32.5108 41.2108 32.9981 41.7976 33.3797 42.5358 C33.763 43.2764 34.0302 44.0798 34.0062 44.7084 C33.9894 45.259 34.1455 45.9344 34.4799 46.5824 C34.816 47.2304 35.26 47.7223 35.6961 47.9783 C35.26 47.6418 34.8432 47.0912 34.5583 46.4182 C34.2727 45.7469 34.1767 45.09 34.2583 44.5869 C34.3487 44.0129 34.1519 43.216 33.827 42.4489 C33.5022 41.6833 33.0453 41.0337 32.558 40.5829 C31.9987 40.0637 31.5122 39.2434 31.141 38.366 C30.7697 37.4886 30.5817 36.6273 30.5625 35.8754 C30.5409 35.0141 30.2392 33.9918 29.8136 32.9872 C29.5903 32.4623 29.3303 31.9665 29.0494 31.5092 C29.3919 31.8457 29.7248 32.2216 30.0384 32.6362 C30.6977 33.504 31.2554 34.4345 31.5226 35.3119 C31.7555 36.0726 32.1683 36.8873 32.7428 37.6432 C33.3197 38.4006 33.9758 39.0583 34.6119 39.3739 C35.1648 39.6508 35.7481 40.141 36.253 40.8027 C36.7563 41.4628 37.1579 42.2098 37.242 42.832 C37.3204 43.3778 37.5924 44.0162 38.0309 44.5941 C38.4734 45.1761 38.995 45.5818 39.4687 45.7573 C38.983 45.5046 38.4766 45.0345 38.0813 44.4211 C37.6844 43.8093 37.4764 43.179 37.4684 42.671 C37.4588 42.089 37.1275 41.3364 36.6747 40.6417 C36.2234 39.9422 35.6617 39.3835 35.1024 39.0221 C34.4615 38.6099 33.843 37.8855 33.3253 37.0869 C32.8068 36.29 32.474 35.4721 32.3252 34.738 C32.1563 33.892 31.6827 32.9397 31.0906 32.0244 C30.7793 31.543 30.4393 31.1019 30.0824 30.7018 C30.4761 30.9723 30.8697 31.2854 31.2514 31.6372 C32.0515 32.3778 32.7596 33.1981 33.1749 34.0143 C33.5358 34.7251 34.0831 35.4512 34.78 36.096 C35.4785 36.7424 36.2394 37.2753 36.9195 37.4749 C37.5132 37.6512 38.1709 38.0328 38.7806 38.5987 C39.3919 39.1597 39.9152 39.823 40.1072 40.4243 C40.2776 40.9476 40.6561 41.5296 41.1906 42.0214 C41.7251 42.5133 42.3076 42.8248 42.8068 42.9158 C42.2852 42.7491 41.7035 42.3764 41.2066 41.8419 C40.7113 41.309 40.3985 40.7238 40.3032 40.2239 C40.1936 39.6532 39.7376 38.9706 39.1719 38.362 C38.6046 37.755 37.9557 37.3026 37.3452 37.0442 C36.6419 36.7504 35.9073 36.1451 35.2608 35.4504 C34.6119 34.7541 34.1439 34.0071 33.8718 33.3092 C33.5574 32.5074 32.9277 31.6501 32.1876 30.8532 C31.7987 30.4346 31.3874 30.0579 30.9674 29.7278 C31.4018 29.9258 31.8443 30.1649 32.282 30.4467 C33.1965 31.0343 34.035 31.7201 34.5855 32.451 C35.064 33.0862 35.7281 33.7092 36.5266 34.2212 C37.3252 34.7372 38.1677 35.1252 38.8726 35.2073 C39.4871 35.2749 40.2008 35.5357 40.8993 35.9857 C41.5963 36.4341 42.226 36.9951 42.5212 37.5498 C42.7772 38.0368 43.2493 38.5415 43.8622 38.9368 C44.4735 39.3296 45.1016 39.5324 45.6081 39.5357 C45.064 39.4632 44.4279 39.196 43.8486 38.7572 C43.2669 38.3185 42.8597 37.7985 42.678 37.3236 C42.4716 36.7778 41.9043 36.1869 41.2418 35.6871 C40.5793 35.1872 39.8632 34.8539 39.2167 34.709 C38.4742 34.5408 37.6444 34.0739 36.8883 33.5015 C36.1306 32.9276 35.5369 32.2772 35.1488 31.6372 C34.7016 30.9015 33.9326 30.1673 33.0653 29.5113 C32.6108 29.1684 32.1403 28.8681 31.6683 28.6169 C32.1323 28.7345 32.6076 28.8939 33.0853 29.0935 C34.0887 29.5129 35.0328 30.0434 35.7017 30.6656 C36.2818 31.2082 37.0427 31.7048 37.9189 32.0711 C38.7942 32.4374 39.6912 32.6764 40.3977 32.6289 C41.0146 32.5895 41.7635 32.7215 42.5276 33.0427 C43.2933 33.3631 44.011 33.805 44.3951 34.3009 C44.7328 34.7364 45.2856 35.1534 45.9546 35.4311 C46.6251 35.7128 47.2796 35.8006 47.778 35.7168 C47.2292 35.7402 46.5578 35.5897 45.9089 35.2596 C45.2616 34.928 44.7696 34.486 44.5103 34.0489 C44.2135 33.5523 43.5526 33.0661 42.8149 32.6893 C42.0739 32.3134 41.3114 32.1105 40.6489 32.0808 C39.8896 32.0445 38.9926 31.7282 38.1469 31.2975 C37.3012 30.8669 36.6075 30.3275 36.1138 29.7648 C35.5465 29.1184 34.6631 28.5308 33.695 28.0382 C33.1885 27.7774 32.6748 27.5664 32.1667 27.3998 C32.6436 27.436 33.1389 27.5101 33.6454 27.6212 C34.7048 27.8587 35.7273 28.212 36.493 28.7119 C37.1587 29.1458 37.9933 29.5 38.9182 29.7085 C39.8416 29.9146 40.7689 29.9935 41.4578 29.8252 C42.0579 29.6787 42.8173 29.6787 43.6254 29.8598 C44.4351 30.0426 45.216 30.3517 45.6817 30.7735 C46.0898 31.143 46.7035 31.4577 47.4132 31.6147 C48.1229 31.7733 48.7806 31.7467 49.2575 31.5752 C48.7206 31.6992 48.0333 31.6646 47.3396 31.4537 Z" transform="translate(0, 0)"/>
 </g>
</svg>
