<?xml version="1.0" encoding="UTF-8"?>
<svg width="50pt" version="1.1" xmlns="http://www.w3.org/2000/svg" height="64.78pt" viewBox="0 0 50 64.78" xmlns:xlink="http://www.w3.org/1999/xlink">
 <defs>
  <clipPath id="Clip0">
   <path d="M0 0 L50 0 L50 64.7804 L0 64.7804 L0 0 Z" transform="translate(0, 0)"/>
  </clipPath>
  <clipPath id="Clip1">
   <path d="M0 0 L50 0 L50 64.7804 L0 64.7804 L0 0 Z" transform="translate(0, 0)"/>
  </clipPath>
 </defs>
 <g id="Background">
  <g id="Layer_1" clip-path="url(#Clip0)">
   <g id="Group1" clip-path="url(#Clip1)">
    <path style="fill:#161413; fill-rule:evenodd;stroke:none;" d="M6.71903 24.3646 C6.71903 24.3646 7.07289 24.0069 7.42869 23.9568 C7.79226 23.9068 8.2301 23.9039 8.2301 23.9039 C8.2301 23.9039 7.92721 18.3281 7.99322 11.9286 C8.05681 5.84547 8.29029 0 8.29029 0 L0 3.54383 C0 3.54383 1.02664 7.9605 2.6513 12.6863 C4.69196 18.6246 6.71903 24.3646 6.71903 24.3646 Z" transform="translate(15.285, 0)"/>
    <path style="fill:#161413; fill-rule:evenodd;stroke:none;" d="M20.4707 0.854855 C20.2207 0.547224 20.1357 0 20.059 0.0388791 C13.0638 5.31186 0 11.4917 0 11.4917 L5.44046 17.5423 C5.44046 17.5423 10.4707 13.4177 14.8122 9.11667 C18.8358 5.13107 21.2682 1.56343 21.2682 1.56343 C21.2682 1.56343 20.7862 1.24462 20.4707 0.854855 Z" transform="translate(0, 29.1345)"/>
    <path style="fill:#161413; fill-rule:evenodd;stroke:none;" d="M0.550453 0 C0.550453 0 0.651418 0.409203 0.443178 0.973436 C0.386385 1.26066 0.174262 1.60862 0 1.84627 C1.29458 2.53832 4.70555 5.29971 11.0096 9.96666 C17.314 14.6341 20.6823 13.1659 20.6823 13.1659 C20.6823 13.1659 22.7545 8.15149 23.0996 7.37342 C15.6734 3.39755 0.550453 0 0.550453 0 Z" transform="translate(26.9004, 27.8928)"/>
    <path style="fill:#161413; fill-rule:evenodd;stroke:none;" d="M6.51807 3.2639 C6.51807 1.46234 5.05941 0 3.25903 0 C1.45962 0 0 1.46234 0 3.2639 C0 5.06595 1.45962 6.52683 3.25903 6.52683 C5.05941 6.52683 6.51807 5.06595 6.51807 3.2639 Z M2.6246 0.387333 L3.74541 2.87122 L6.22731 4.02302 L3.443 3.90152 L1.08246 5.23556 L2.80663 3.02285 L2.6246 0.387333 Z" transform="translate(20.4241, 24.4613)"/>
    <path style="fill:#161413; fill-rule:evenodd;stroke:none;" d="M3.99394 0 C3.99394 0 3.12506 0.496195 2.06833 0.496195 C1.01208 0.496195 0.178145 0.0213835 0.178145 0.0213835 C0.178145 0.0213835 0 0.201685 0 0.893248 C0 1.47546 0.731996 1.77726 2.17657 1.79864 C3.62066 1.821 4.48178 1.47546 4.46091 0.915117 C4.42693 0.00826181 3.99394 0 3.99394 0 Z" transform="translate(21.5648, 31.0056)"/>
    <path style="fill:#161413; fill-rule:evenodd;stroke:none;" d="M0.21358 0.0233275 C0.21358 0.0233275 0 1.40256 1.35283 1.40256 C2.70761 1.40256 2.44549 0 2.44549 0 C2.44549 0 1.28245 0.309089 0.21358 0.0233275 Z" transform="translate(22.337, 33.0161)"/>
    <path style="fill:#161413; fill-rule:evenodd;stroke:none;" d="M0.0718405 0 L0 29.9335 L1.0213 29.9578 L0.997515 0 L0.0718405 0 Z" transform="translate(23.12, 34.8226)"/>
   </g>
  </g>
 </g>
</svg>
