<?xml version="1.0" encoding="iso-8859-1"?>
<!-- Generator: Adobe Illustrator 16.0.0, SVG Export Plug-In . SVG Version: 6.00 Build 0)  -->
<!DOCTYPE svg PUBLIC "-//W3C//DTD SVG 1.1//EN" "http://www.w3.org/Graphics/SVG/1.1/DTD/svg11.dtd">
<svg version="1.1" id="Capa_1" xmlns="http://www.w3.org/2000/svg" xmlns:xlink="http://www.w3.org/1999/xlink" x="0px" y="0px"
	 width="95.546px" height="95.545px" viewBox="0 0 95.546 95.545" style="enable-background:new 0 0 95.546 95.545;"
	 xml:space="preserve">
<g>
	<g>
		<path d="M65.947,29.686c-1.903-0.521-6.465-1.327-6.465-1.327s-6.23-4.946-11.721-4.946c-5.49,0-11.699,4.946-11.699,4.946
			s-4.561,0.806-6.465,1.327c8.529,3.114,14.647,11.286,14.647,20.879c0,3.94-1.04,7.64-2.845,10.853h6.359h0.025h6.358
			c-1.805-3.213-2.845-6.911-2.845-10.853C51.3,40.973,57.419,32.801,65.947,29.686z"/>
		<g>
			<path d="M20.749,30.635C9.308,30.635,0,39.943,0,51.383s9.308,20.75,20.749,20.75s20.75-9.31,20.75-20.75
				C41.499,39.941,32.19,30.635,20.749,30.635z M20.749,64.488c-7.226,0-13.104-5.878-13.104-13.104
				c0-7.226,5.879-13.104,13.104-13.104c7.226,0,13.105,5.88,13.105,13.104C33.854,58.61,27.975,64.488,20.749,64.488z"/>
			<path d="M12.287,44.776c-2.838,3.68-2.595,8.762,0.33,12.146c-1.038-3.456-0.462-7.343,1.91-10.417
				c2.373-3.075,5.986-4.617,9.593-4.489C20.105,40.044,15.126,41.099,12.287,44.776z"/>
			<path d="M74.797,30.635c-11.441,0-20.75,9.308-20.75,20.749s9.309,20.75,20.75,20.75s20.749-9.31,20.749-20.75
				C95.546,39.941,86.238,30.635,74.797,30.635z M74.797,64.488c-7.227,0-13.105-5.878-13.105-13.104
				c0-7.226,5.879-13.104,13.105-13.104S87.9,44.159,87.9,51.383C87.9,58.61,82.023,64.488,74.797,64.488z"/>
			<path d="M71.426,42.017c3.607-0.128,7.221,1.414,9.594,4.489c2.373,3.074,2.947,6.962,1.91,10.417
				c2.924-3.385,3.168-8.467,0.329-12.146C80.42,41.099,75.441,40.044,71.426,42.017z"/>
		</g>
	</g>
</g>
<g>
</g>
<g>
</g>
<g>
</g>
<g>
</g>
<g>
</g>
<g>
</g>
<g>
</g>
<g>
</g>
<g>
</g>
<g>
</g>
<g>
</g>
<g>
</g>
<g>
</g>
<g>
</g>
<g>
</g>
</svg>
