<?xml version="1.0" encoding="iso-8859-1"?>
<!-- Generator: Adobe Illustrator 19.0.0, SVG Export Plug-In . SVG Version: 6.00 Build 0)  -->
<svg version="1.1" id="Capa_1" xmlns="http://www.w3.org/2000/svg" xmlns:xlink="http://www.w3.org/1999/xlink" x="0px" y="0px"
	 viewBox="0 0 512 512" style="enable-background:new 0 0 512 512;" xml:space="preserve">
<g>
	<g>
		<path d="M458.667,64C452.771,64,448,68.771,448,74.667v10.667h-21.333V74.667C426.667,68.771,421.896,64,416,64
			c-5.896,0-10.667,4.771-10.667,10.667v42.667c0,13.888,8.944,25.617,21.333,30.035v225.965c0,5.885-4.792,10.667-10.667,10.667
			s-10.667-4.781-10.667-10.667V352c0-13.888-8.944-25.617-21.333-30.035V42.667C384,19.135,364.854,0,341.333,0H128
			c-23.521,0-42.667,19.135-42.667,42.667v384c-23.521,0-42.667,19.135-42.667,42.667v32c0,5.896,4.771,10.667,10.667,10.667H416
			c5.896,0,10.667-4.771,10.667-10.667v-32c0-23.531-19.146-42.667-42.667-42.667v-53.333c0,17.646,14.354,32,32,32
			c17.646,0,32-14.354,32-32V147.368c12.389-4.418,21.333-16.147,21.333-30.035V74.667C469.333,68.771,464.563,64,458.667,64z
			 M297.146,293.49l-64,106.667c-1.958,3.271-5.458,5.177-9.146,5.177c-0.938,0-1.896-0.125-2.854-0.385
			c-4.604-1.281-7.813-5.49-7.813-10.281v-53.333h-32c-3.833,0-7.396-2.063-9.292-5.406c-1.875-3.344-1.833-7.448,0.146-10.75
			l64-106.667c2.458-4.104,7.292-6.063,12-4.792C252.792,215,256,219.208,256,224v53.333h32c3.833,0,7.396,2.063,9.292,5.406
			C299.167,286.083,299.125,290.188,297.146,293.49z M341.333,181.531c0,5.896-4.771,10.667-10.667,10.667h-192
			c-5.896,0-10.667-4.771-10.667-10.667V53.333c0-5.896,4.771-10.667,10.667-10.667h192c5.896,0,10.667,4.771,10.667,10.667V181.531
			z"/>
	</g>
</g>
<g>
</g>
<g>
</g>
<g>
</g>
<g>
</g>
<g>
</g>
<g>
</g>
<g>
</g>
<g>
</g>
<g>
</g>
<g>
</g>
<g>
</g>
<g>
</g>
<g>
</g>
<g>
</g>
<g>
</g>
</svg>
