<?xml version="1.0" encoding="iso-8859-1"?>
<!-- Generator: Adobe Illustrator 19.0.0, SVG Export Plug-In . SVG Version: 6.00 Build 0)  -->
<svg version="1.1" id="Layer_1" xmlns="http://www.w3.org/2000/svg" xmlns:xlink="http://www.w3.org/1999/xlink" x="0px" y="0px"
	 viewBox="0 0 512 512" style="enable-background:new 0 0 512 512;" xml:space="preserve">
<g>
    <path d="M385.501,71.229h-62.742V16.696c0-9.22-7.475-16.696-16.696-16.696H205.937c-9.22,0-16.696,7.475-16.696,16.696v54.534
            h-62.742c-9.22,0-16.696,7.475-16.696,16.696v407.379c0,9.22,7.475,16.696,16.696,16.696h259.002
            c9.22,0,16.696-7.475,16.696-16.696V87.925C402.197,78.704,394.721,71.229,385.501,71.229z M355.142,279.893l-93.93,159.732
            c-8.867,15.083-32.062,8.028-31.06-9.421l5.845-101.708h-64.749c-12.888,0-20.932-14.037-14.392-25.159l93.93-159.732
            c8.836-15.031,32.062-8.026,31.059,9.421l-5.845,101.709h64.749C353.638,254.734,361.682,268.771,355.142,279.893z"/>
</g>
</svg>
