<?xml version="1.0" encoding="UTF-8" standalone="no"?>
<!-- Created with Inkscape (http://www.inkscape.org/) -->

<svg
   xmlns:dc="http://purl.org/dc/elements/1.1/"
   xmlns:cc="http://creativecommons.org/ns#"
   xmlns:rdf="http://www.w3.org/1999/02/22-rdf-syntax-ns#"
   xmlns:svg="http://www.w3.org/2000/svg"
   xmlns="http://www.w3.org/2000/svg"
   xmlns:sodipodi="http://sodipodi.sourceforge.net/DTD/sodipodi-0.dtd"
   xmlns:inkscape="http://www.inkscape.org/namespaces/inkscape"
   width="4.8410902mm"
   height="7.0413599mm"
   viewBox="0 0 4.8410902 7.0413599"
   version="1.1"
   id="svg556"
   inkscape:version="0.92.0 r15299"
   sodipodi:docname="interest.svg">
  <defs
     id="defs550" />
  <sodipodi:namedview
     id="base"
     pagecolor="#ffffff"
     bordercolor="#666666"
     borderopacity="1.0"
     inkscape:pageopacity="0.0"
     inkscape:pageshadow="2"
     inkscape:zoom="0.35"
     inkscape:cx="-77.142857"
     inkscape:cy="560"
     inkscape:document-units="mm"
     inkscape:current-layer="layer1"
     showgrid="false"
     inkscape:window-width="1366"
     inkscape:window-height="716"
     inkscape:window-x="-8"
     inkscape:window-y="-8"
     inkscape:window-maximized="1" />
  <metadata
     id="metadata553">
    <rdf:RDF>
      <cc:Work
         rdf:about="">
        <dc:format>image/svg+xml</dc:format>
        <dc:type
           rdf:resource="http://purl.org/dc/dcmitype/StillImage" />
        <dc:title></dc:title>
      </cc:Work>
    </rdf:RDF>
  </metadata>
  <g
     inkscape:label="Layer 1"
     inkscape:groupmode="layer"
     id="layer1"
     transform="translate(0,-289.95864)">
    <path
       id="path216"
       d="M 2.7e-4,296.41315 C 2.7e-4,296.737 0.26274,297 0.58685,297 h 3.66739 c 0.32438,0 0.58685,-0.263 0.58685,-0.58685 v -5.86766 c 0,-0.32438 -0.26247,-0.58685 -0.58685,-0.58685 H 0.58659 C 0.26247,289.95864 0,290.22111 0,290.54549 v 5.86766 z m 1.05595,-5.72082 H 3.7846 c 0.17886,0 0.32253,0.14367 0.32253,0.32253 v 0.96811 c 0,0.17912 -0.14367,0.32253 -0.32253,0.32253 H 1.05622 c -0.17912,0 -0.32279,-0.14341 -0.32279,-0.32253 v -0.96811 c 0,-0.17886 0.14367,-0.32253 0.32279,-0.32253 z m -0.32279,2.56699 c 0,-0.20267 0.16431,-0.36698 0.36671,-0.36698 0.20241,0 0.36698,0.16431 0.36698,0.36698 0,0.20241 -0.16457,0.36671 -0.36698,0.36671 -0.2024,0 -0.36671,-0.16457 -0.36671,-0.36671 z m 1.32027,0 c 0,-0.20267 0.16431,-0.36698 0.36671,-0.36698 0.20267,0 0.36698,0.16431 0.36698,0.36698 0,0.20241 -0.16431,0.36671 -0.36698,0.36671 -0.2024,0 -0.36671,-0.16457 -0.36671,-0.36671 z m 1.32027,0 c 0,-0.20267 0.16431,-0.36698 0.36671,-0.36698 0.20241,0 0.36672,0.16431 0.36672,0.36698 0,0.20241 -0.16431,0.36671 -0.36672,0.36671 -0.2024,0 -0.36671,-0.16457 -0.36671,-0.36671 z m -2.64054,1.32001 c 0,-0.20241 0.16431,-0.36698 0.36671,-0.36698 0.20241,0 0.36698,0.16457 0.36698,0.36698 0,0.20267 -0.16457,0.36697 -0.36698,0.36697 -0.2024,0 -0.36671,-0.1643 -0.36671,-0.36697 z m 1.32027,0 c 0,-0.20241 0.16431,-0.36698 0.36671,-0.36698 0.20267,0 0.36698,0.16457 0.36698,0.36698 0,0.20267 -0.16431,0.36697 -0.36698,0.36697 -0.2024,0 -0.36671,-0.1643 -0.36671,-0.36697 z m 1.32027,0 c 0,-0.20241 0.16431,-0.36698 0.36671,-0.36698 0.20241,0 0.36672,0.16457 0.36672,0.36698 0,0.20267 -0.16431,0.36697 -0.36672,0.36697 -0.2024,0 -0.36671,-0.1643 -0.36671,-0.36697 z m -2.64054,1.32 c 0,-0.2024 0.16431,-0.36644 0.36671,-0.36644 0.20241,0 0.36698,0.16404 0.36698,0.36644 0,0.20267 -0.16457,0.36698 -0.36698,0.36698 -0.2024,0 -0.36671,-0.16431 -0.36671,-0.36698 z m 1.32027,0 c 0,-0.2024 0.16431,-0.36644 0.36671,-0.36644 0.20267,0 0.36698,0.16404 0.36698,0.36644 0,0.20267 -0.16431,0.36698 -0.36698,0.36698 -0.2024,0 -0.36671,-0.16431 -0.36671,-0.36698 z m 1.32027,0 c 0,-0.2024 0.16431,-0.36644 0.36671,-0.36644 0.20241,0 0.36672,0.16404 0.36672,0.36644 0,0.20267 -0.16431,0.36698 -0.36672,0.36698 -0.2024,0 -0.36671,-0.16431 -0.36671,-0.36698 z"
       inkscape:connector-curvature="0"
       style="clip-rule:evenodd;fill-rule:evenodd;stroke-width:0.26458332" />
  </g>
</svg>
