<?xml version="1.0" encoding="UTF-8"?>
<svg width="50pt" version="1.1" xmlns="http://www.w3.org/2000/svg" height="38.18pt" viewBox="0 0 50 38.18" xmlns:xlink="http://www.w3.org/1999/xlink">
 <defs>
  <clipPath id="Clip0">
   <path d="M0 0 L50 0 L50 39.1768 L0 39.1768 L0 0 Z" transform="translate(0, 0)"/>
  </clipPath>
  <clipPath id="Clip1">
   <path d="M0 0 L50 0 L50 39.1768 L0 39.1768 L0 0 Z" transform="translate(0, 0)"/>
  </clipPath>
 </defs>
 <g id="Background">
  <g id="Layer_1" clip-path="url(#Clip0)">
   <g id="Group1" clip-path="url(#Clip1)">
    <path style="fill:#161413; fill-rule:nonzero;stroke:#000000; stroke-width:1.49078; stroke-linecap:round; stroke-linejoin:round; stroke-dasharray:none;" id=" path11341" d="M24.2546 0 L0 16.4569 L48.5092 16.4569 L38.2323 9.48698 L38.2323 0.734358 L31.3543 0.734358 L31.3543 4.81379 L24.2546 0 Z" transform="translate(0.745391, 0.745391)"/>
    <path style="fill:#161413; fill-rule:nonzero;stroke:#000000; stroke-width:1.5241; stroke-linecap:round; stroke-linejoin:round; stroke-dasharray:none;" id=" rect11344" d="M0 0 L0 19.0094 L34.124 19.0094 L34.124 7.10543e-15 L0 7.10543e-15 L0 0 Z M5.2606 4.34722 L13.2794 4.34722 L13.2794 12.3774 L5.2606 12.3774 L5.2606 4.34722 Z M19.4711 6.74796 L27.7227 6.74796 L27.7227 18.9158 L19.4711 18.9158 L19.4711 6.74796 L19.4711 6.74796 Z" transform="translate(7.82159, 19.4053)"/>
    <path style="fill:#161413; fill-rule:nonzero;stroke:none;" id=" path11352" d="M3.44499 0 L3.44499 3.1586 L0 3.1586 L0 4.65044 L3.44499 4.65044 L3.44499 8.04213 L4.93472 8.04213 L4.93472 4.65044 L8.1354 4.65044 L8.1354 3.1586 L4.93472 3.1586 L4.93472 0 L3.44499 0 Z" transform="translate(12.8494, 23.8573)"/>
   </g>
  </g>
 </g>
</svg>
