<?xml version="1.0" encoding="iso-8859-1"?>
<!-- Generator: Adobe Illustrator 17.1.0, SVG Export Plug-In . SVG Version: 6.00 Build 0)  -->
<!DOCTYPE svg PUBLIC "-//W3C//DTD SVG 1.1//EN" "http://www.w3.org/Graphics/SVG/1.1/DTD/svg11.dtd">
<svg version="1.1" id="Capa_1" xmlns="http://www.w3.org/2000/svg" xmlns:xlink="http://www.w3.org/1999/xlink" x="0px" y="0px"
	 viewBox="0 0 201.047 201.047" style="enable-background:new 0 0 201.047 201.047;" xml:space="preserve">
<path style="fill:#000001;" d="M181.881,24.328h-84c-10.568,0-19.167,8.598-19.167,19.167v84c0,10.569,8.599,19.167,19.167,19.167
	h84c10.568,0,19.166-8.598,19.166-19.167v-84C201.047,32.926,192.449,24.328,181.881,24.328z M177.039,85.494
	c0,20.489-16.669,37.158-37.158,37.158s-37.158-16.669-37.158-37.158c0-20.489,16.669-37.158,37.158-37.158
	S177.039,65.006,177.039,85.494z M165.718,82.144v6.701c0,4.142-3.357,7.5-7.5,7.5h-6.04c-4.143,0-7.5-3.358-7.5-7.5v-6.701
	c0-4.142,3.357-7.5,7.5-7.5h6.04C162.36,74.644,165.718,78.002,165.718,82.144z M135.083,82.144v6.701c0,4.142-3.357,7.5-7.5,7.5
	h-6.039c-4.143,0-7.5-3.358-7.5-7.5v-6.701c0-4.142,3.357-7.5,7.5-7.5h6.039C131.726,74.644,135.083,78.002,135.083,82.144z
	 M192.17,169.219c0,4.142-3.357,7.5-7.5,7.5H64.164c-20.794,0-37.711-16.917-37.711-37.71v-30.427c-11.941-2.27-21-12.781-21-25.373
	V66.226C2.307,65.335,0,62.448,0,59.016c0-4.142,3.357-7.5,7.5-7.5h5.453h0.667V36.771c0-4.142,3.357-7.5,7.5-7.5s7.5,3.358,7.5,7.5
	v14.746h10.666V36.771c0-4.142,3.357-7.5,7.5-7.5s7.5,3.358,7.5,7.5v14.746h0.667h5.453c4.143,0,7.5,3.358,7.5,7.5
	c0,3.432-2.307,6.318-5.453,7.21v16.982c0,12.592-9.059,23.103-21,25.373v30.427c0,12.522,10.188,22.71,22.711,22.71H184.67
	C188.813,161.719,192.17,165.077,192.17,169.219z"/>
</svg>