<?xml version="1.0" encoding="iso-8859-1"?>
<!-- Generator: Adobe Illustrator 16.0.0, SVG Export Plug-In . SVG Version: 6.00 Build 0)  -->
<!DOCTYPE svg PUBLIC "-//W3C//DTD SVG 1.1//EN" "http://www.w3.org/Graphics/SVG/1.1/DTD/svg11.dtd">
<svg version="1.1" id="Capa_1" xmlns="http://www.w3.org/2000/svg" xmlns:xlink="http://www.w3.org/1999/xlink" x="0px" y="0px"
	 width="31.802px" height="31.802px" viewBox="0 0 31.802 31.802" style="enable-background:new 0 0 31.802 31.802;"
	 xml:space="preserve">
<g>
    <path d="M29.484,9.939l-3.896-4.673l-2.703,2.255c-1.198-0.8-2.539-1.396-3.969-1.771V3.609h2.164V0h-8.868v3.609h2.475v1.74
            C7.792,5.805,2.317,11.545,2.317,18.553c0,7.307,5.943,13.249,13.248,13.249c7.307,0,13.249-5.942,13.249-13.249
            c0-2.396-0.649-4.64-1.767-6.581L29.484,9.939z M16.081,29.301v-3.109h-0.515v3.137c-2.809,0-5.361-1.09-7.282-2.857
            c0.229-0.148,0.391-0.396,0.391-0.691c0-0.465-0.378-0.842-0.843-0.842c-0.276,0-0.51,0.143-0.664,0.349
            c-1.481-1.845-2.373-4.181-2.375-6.726H7.47v-0.515H4.818c0.123-2.621,1.183-4.996,2.856-6.803
            c0.155,0.184,0.378,0.309,0.638,0.309c0.465,0,0.842-0.377,0.842-0.843c0-0.236-0.099-0.448-0.255-0.601
            c1.836-1.453,4.149-2.328,6.666-2.328v3.615h0.515V7.806c2.266,0.107,4.348,0.914,6.038,2.216
            c-0.119,0.145-0.203,0.325-0.203,0.53c0,0.466,0.377,0.843,0.844,0.843c0.236,0,0.449-0.101,0.603-0.258
            c1.729,1.818,2.828,4.236,2.953,6.908h-2.535v0.514h2.562c-0.002,2.106-0.619,4.066-1.668,5.729
            c-0.144-0.114-0.316-0.192-0.514-0.192c-0.466,0-0.843,0.378-0.843,0.843c0,0.285,0.151,0.524,0.368,0.679
            C21.813,27.762,19.11,29.157,16.081,29.301z"/>
    <path d="M16.234,10.708v4.16c1.786,0.315,3.153,1.817,3.276,3.662l4.089-0.669C23.163,14.051,20.079,11.035,16.234,10.708z"/>
</g>
</svg>
